<svg width="60" height="60" viewBox="0 0 60 60" fill="none" xmlns="http://www.w3.org/2000/svg">
<g clip-path="url(#clip0_1060_54)">
<path fill-rule="evenodd" clip-rule="evenodd" d="M2.16727 0.0917206C1.34133 0.360197 0.637852 0.957385 0.218203 1.74617C0.0075 2.14227 0 2.97067 0 26.004V49.8516L0.259688 50.3372C0.743086 51.241 1.97871 52.0196 2.92969 52.0196C3.63563 52.0196 4.4618 51.637 5.04152 51.0418C5.81531 50.2473 5.91797 49.8623 5.91797 47.7573V46.0418L16.0666 46.0716L26.2152 46.1016L26.4839 47.1563C27.2906 50.322 28.8061 52.8929 31.2573 55.2539C33.6178 57.5274 36.3131 58.9525 39.5873 59.6582C41.3071 60.029 44.5914 60.029 46.3111 59.6582C53.1772 58.1783 58.2912 52.9841 59.6659 46.094C59.9516 44.6621 59.9566 41.3541 59.6753 39.9493C59.2048 37.5997 58.1156 35.0156 56.8352 33.211C55.3731 31.1504 52.885 28.9903 50.7075 27.8911L49.9855 27.5266L49.9538 14.9001C49.9185 0.923986 49.9762 1.9318 49.1566 0.998283C47.7832 -0.565936 45.3281 -0.245193 44.2969 1.63321L43.9453 2.27352L43.9103 9.62703L43.8754 16.9805H42.8556L41.8359 16.9807L41.8703 11.2677C41.8961 6.99699 41.868 5.42164 41.7596 5.02742C41.571 4.34176 40.6274 3.37871 39.9473 3.17774C39.598 3.07449 37.915 3.03524 33.8453 3.03524H28.2257L27.5902 3.3575C26.8702 3.72266 26.2645 4.43774 26.0732 5.1486C25.9908 5.45422 25.9598 7.54285 25.9821 11.2961L26.0156 16.9807L24.8813 16.9805H23.7469L23.8559 16.6005C24.007 16.0735 23.9961 5.78926 23.8438 5.24106C23.6311 4.475 23.025 3.71762 22.3402 3.36184L21.7116 3.03524H15.979C9.79031 3.03524 9.89098 3.02598 9.04242 3.6732C8.82715 3.83738 8.4975 4.24883 8.30988 4.5875L7.96875 5.20321L7.93406 10.6821C7.91332 13.9595 7.94484 16.3257 8.01246 16.5707L8.12566 16.9805H7.02516H5.92465L5.89195 9.50985C5.86195 2.62473 5.84309 2.00949 5.6523 1.66016C5.36098 1.12707 4.74504 0.539377 4.20738 0.28133C3.70676 0.0409784 2.63074 -0.0589825 2.16727 0.0917206ZM3.37687 2.11684C3.51762 2.19184 3.69703 2.33692 3.77555 2.4391C3.88664 2.58383 3.9191 7.80336 3.92203 25.9681L3.92578 49.3112L3.64805 49.6341C3.25875 50.0867 2.60063 50.0867 2.21133 49.6341L1.93359 49.3112V25.9884V2.66563L2.27613 2.32309C2.64176 1.95746 2.96414 1.89711 3.37687 2.11684ZM47.6009 2.26332L47.9297 2.5461L47.9611 14.6266C47.9784 21.2709 47.9521 26.7049 47.9025 26.7022C47.853 26.6995 47.417 26.602 46.9336 26.4855L46.0547 26.2739L46.0248 14.4721C46.0041 6.25836 46.0331 2.59906 46.1204 2.43606C46.3861 1.93942 47.1243 1.8534 47.6009 2.26332ZM11.9162 7.81063C11.9502 10.3691 11.9726 10.6269 12.1938 11.0036C12.82 12.0693 13.9859 12.2391 15.1743 11.4376C15.5278 11.1991 15.8713 11.004 15.9375 11.004C16.0037 11.004 16.3466 11.1984 16.6995 11.4362C18.0187 12.3246 19.4047 11.9847 19.847 10.6643C19.9309 10.4137 19.9805 9.29387 19.9805 7.64668V5.02742H20.6614C21.3998 5.02742 21.7918 5.25711 21.9171 5.76313C21.9525 5.90633 21.9663 8.36164 21.9478 11.2193L21.9141 16.4151L21.5852 16.6978L21.2564 16.9805H15.9375H10.6186L10.2898 16.6978L9.96094 16.4149V11.0236V5.63223L10.245 5.32989C10.4866 5.07266 10.6301 5.02742 11.2042 5.02742H11.8792L11.9162 7.81063ZM17.9883 7.43668C17.9883 9.33336 17.9571 9.82707 17.8418 9.75711C17.7613 9.70836 17.3839 9.46789 17.0033 9.22285C16.0876 8.6334 15.7812 8.64477 14.7974 9.30477C14.365 9.59481 13.9833 9.83211 13.9489 9.83211C13.9147 9.83211 13.8867 8.75106 13.8867 7.42977V5.02742H15.9375H17.9883V7.43668ZM29.9414 7.76293C29.9414 10.3827 29.9527 10.5197 30.208 11.0025C30.5336 11.6182 31.0907 11.9415 31.8257 11.9415C32.257 11.9415 32.5123 11.8469 33.0913 11.4727C33.4902 11.2149 33.8657 11.004 33.9258 11.004C33.9859 11.004 34.3614 11.2149 34.7603 11.4727C35.3694 11.8665 35.583 11.9415 36.0946 11.9415C36.8207 11.9415 37.3654 11.6226 37.6931 11.0059C37.8868 10.6414 37.9102 10.2979 37.9102 7.8125V5.02742H38.6186C39.2146 5.02742 39.3728 5.07313 39.6147 5.31512L39.9023 5.6027V11.004V16.4053L39.6147 16.6929L39.3271 16.9805H34.0406C28.6291 16.9805 28.4404 16.966 28.0995 16.522C27.9921 16.3822 27.9558 15.0032 27.953 10.9694L27.9492 5.6027L28.2369 5.31512C28.4788 5.07313 28.637 5.02742 29.233 5.02742H29.9414V7.76293ZM35.918 7.43223V9.83703L35.1282 9.30723C34.1252 8.63434 33.7924 8.62227 32.8939 9.22578C32.5269 9.47235 32.1607 9.71281 32.0801 9.76004C31.9649 9.82766 31.9336 9.33184 31.9336 7.43668V5.02742H33.9258H35.918V7.43223ZM43.8867 19.9688V20.9649H24.9023H5.91797V19.9688V18.9727H24.9023H43.8867V19.9688ZM43.8867 24.4632V25.9692L42.2754 26.0407C39.6139 26.1586 37.4426 26.7352 35.1209 27.9407C30.8057 30.1814 27.6855 34.1173 26.4841 38.836L26.2157 39.8907L24.9814 39.9239L23.7472 39.957L23.8615 39.5434C23.9305 39.2934 23.9619 36.9627 23.9409 33.6508C23.907 28.2909 23.9007 28.1618 23.6529 27.7032C23.3161 27.0802 22.7354 26.5394 22.0898 26.2476C21.5832 26.0185 21.3418 26.009 15.9375 26.0077L10.3125 26.0063L9.72656 26.2797C9.4043 26.4301 8.94586 26.7692 8.70773 27.0332C7.93301 27.8928 7.91016 28.0911 7.91016 33.9655C7.91016 36.8384 7.95926 39.3602 8.01914 39.5693L8.12813 39.9493H7.02305H5.91797V31.4532V22.9571H24.9023H43.8867V24.4632ZM11.8973 30.545C11.8989 31.9468 11.9475 33.298 12.0054 33.5476C12.1395 34.1254 12.7543 34.7632 13.326 34.917C13.9105 35.0744 14.4715 34.9174 15.283 34.3692C15.8471 33.9881 15.9446 33.9576 16.1619 34.095C17.4574 34.914 17.5498 34.9554 18.0866 34.9554C18.7504 34.9554 19.2421 34.689 19.6343 34.117C19.9173 33.7043 19.9225 33.6527 19.9587 30.8469L19.9956 27.9962H20.6261C21.1234 27.9962 21.3258 28.0558 21.5852 28.2789L21.9141 28.5617L21.9468 33.8908L21.9795 39.22L21.6727 39.5847L21.3659 39.9493H15.9475H10.5292L10.245 39.6468L9.96094 39.3445V33.9532V28.5618L10.2898 28.2789C10.5503 28.0549 10.751 27.9962 11.2566 27.9962H11.8945L11.8973 30.545ZM17.9883 30.3985C17.9883 31.7198 17.9603 32.8009 17.9261 32.8009C17.8917 32.8009 17.51 32.5636 17.0776 32.2735C16.578 31.9384 16.1625 31.7462 15.9375 31.7462C15.7125 31.7462 15.297 31.9384 14.7974 32.2735C14.365 32.5636 13.9833 32.8009 13.9489 32.8009C13.9147 32.8009 13.8867 31.7198 13.8867 30.3985V27.9962H15.9375H17.9883V30.3985ZM46.1133 28.3326C49.4679 29.1066 52.2848 30.8259 54.4898 33.4452C56.0505 35.2991 57.1255 37.5736 57.6745 40.1837C57.9642 41.5603 57.9639 44.4344 57.6741 45.8087C55.8534 54.4409 47.4589 59.7044 39.0861 57.4638C36.422 56.7507 34.2396 55.472 32.2528 53.4596C30.2193 51.3997 28.8687 48.871 28.2289 45.9259C27.9311 44.5541 27.9241 41.4611 28.2161 40.1026C29.2071 35.4903 32.0388 31.7466 36.1084 29.6687C37.7411 28.835 39.2586 28.3624 41.25 28.0674C42.0934 27.9426 45.1437 28.1088 46.1133 28.3326ZM41.3672 32.1095C38.9585 32.4533 36.6334 33.6811 34.9177 35.5153C33.225 37.3249 32.8887 38.465 33.9213 38.8927C34.4733 39.1214 34.8618 38.8906 35.5016 37.9542C39.3434 32.3316 47.7741 32.8416 50.9041 38.8858C51.3343 39.7166 51.7383 40.8409 51.7383 41.2077C51.7383 41.3381 51.6885 41.334 51.4778 41.1865C50.8289 40.7319 49.9805 41.1992 49.9805 42.0112C49.9805 42.3995 50.0943 42.5589 51.1072 43.5898C52.269 44.7724 52.7127 45.0641 53.1716 44.9471C53.3178 44.9098 53.9885 44.3254 54.6621 43.6486C55.7698 42.5353 55.8867 42.3768 55.8867 41.9887C55.8867 41.1245 54.9081 40.7185 54.2201 41.2974L53.8713 41.5907L53.6725 40.6822C53.2107 38.5738 52.2403 36.8083 50.6891 35.2548C48.2058 32.7678 44.8017 31.6193 41.3672 32.1095ZM31.5628 41.9122C29.8914 43.5032 29.6523 44.0142 30.2839 44.6458C30.7018 45.0637 31.0636 45.0794 31.6177 44.7035L32.0375 44.4185L32.1689 45.0843C32.5842 47.1888 33.778 49.4144 35.2359 50.8023C37.6569 53.107 40.9922 54.2737 44.0747 53.8944C45.5542 53.7123 46.3663 53.4825 47.6211 52.8907C49.4838 52.0123 50.9638 50.7482 52.0711 49.0902C52.7912 48.0117 52.6863 47.1983 51.8059 47.0331C51.2618 46.931 51.0025 47.1035 50.4284 47.9488C49.153 49.8268 47.358 51.1093 45.1927 51.6897C43.9548 52.0215 41.9543 52.0186 40.689 51.683C38.9237 51.2149 37.115 50.056 36.011 48.6857C35.3587 47.8759 34.6126 46.4843 34.3474 45.5823C34.0855 44.6919 34.0962 44.5787 34.4207 44.8059C34.7957 45.0686 35.1457 45.0314 35.5574 44.685C35.8375 44.4493 35.918 44.2871 35.918 43.9584C35.918 43.5766 35.7945 43.4117 34.6523 42.2696C33.4977 41.115 33.3486 41.004 32.9518 41.004C32.5696 41.004 32.4014 41.1139 31.5628 41.9122ZM25.957 42.9376V43.9337H15.9375H5.91797V43.0157C5.91797 42.5108 5.95312 42.0625 5.99613 42.0196C6.03902 41.9766 10.5478 41.9415 16.0157 41.9415H25.957V42.9376Z" fill="url(#paint0_linear_1060_54)"/>
</g>
<defs>
<linearGradient id="paint0_linear_1060_54" x1="0" y1="0" x2="62.8842" y2="56.6833" gradientUnits="userSpaceOnUse">
<stop stop-color="#594372"/>
<stop offset="1" stop-color="#7A5B9E"/>
</linearGradient>
<clipPath id="clip0_1060_54">
<rect width="60" height="60" fill="white"/>
</clipPath>
</defs>
</svg>
