<svg width="60" height="60" viewBox="0 0 60 60" fill="none" xmlns="http://www.w3.org/2000/svg">
<path fill-rule="evenodd" clip-rule="evenodd" d="M0.382745 7.27316C0.102902 7.51387 0.0587219 7.6498 0.011261 8.41727C-0.133466 10.7588 1.12735 12.9661 3.18634 13.9757C4.05552 14.4019 5.62114 14.8547 6.22548 14.8547C6.56321 14.8547 6.5713 14.8679 6.49724 15.2942C6.12048 17.4614 6.05157 18.4116 6.10853 20.6555C6.17017 23.0862 6.30939 24.1245 6.8304 26.037C7.89997 29.9629 9.97935 32.4959 12.4669 32.9032C12.8818 32.9712 17.372 33.0177 23.56 33.0181L33.9558 33.0188L33.9897 39.7864L34.0234 46.5539L34.3532 47.2254C34.7325 47.9981 35.3077 48.5212 36.0592 48.7772C36.698 48.9948 39.239 49.024 39.836 48.8205C40.5041 48.5928 41.2088 48.0389 41.5318 47.4877L41.8386 46.9641H46.9252H52.0117L52.0143 48.7512C52.0171 50.7476 52.1438 51.2273 52.868 51.9842C53.5835 52.7321 54.0061 52.8702 55.7265 52.9193C57.6585 52.9743 58.2433 52.8141 59.0486 52.0088C60.0249 51.0324 59.9897 51.4114 59.9535 42.2684L59.9218 34.2493L59.6476 33.7219C59.2814 33.0174 58.9124 32.6444 58.2481 32.3071C57.7753 32.067 57.4893 32.0202 56.2715 31.9836C54.5562 31.9319 53.824 32.1045 53.0885 32.7341C52.1451 33.5417 52.0756 33.7938 52.0326 36.5637L51.9947 38.9954H47.0228H42.0508L42.0512 35.8606L42.0516 32.7258L42.5803 32.5084C42.8712 32.3888 43.4111 32.0564 43.7802 31.7698C46.4296 29.7126 47.9121 25.4759 47.9092 19.9709C47.9058 13.6357 46.0102 9.14066 42.6492 7.49758L41.7578 7.06176L21.2291 7.03082L0.700323 7L0.382745 7.27316ZM41.3569 9.11312C41.9761 9.28516 42.9784 10.0314 43.4834 10.6966C44.7856 12.4114 45.6189 14.9714 45.8576 17.9895L45.934 18.9563H35.644H25.354L23.3888 16.9934L21.4235 15.0305L17.5136 14.9719L13.6035 14.9133L13.1391 14.3274C12.4486 13.4564 11.2649 12.3933 10.0364 11.5409C9.04759 10.8548 8.39146 10.4582 6.42575 9.35816L5.78122 8.99758L23.3593 8.99711C34.6514 8.99687 41.0875 9.03836 41.3569 9.11312ZM3.64396 10.2201C4.9854 10.8528 7.09032 11.9748 7.29224 12.1649C7.35353 12.2226 7.33759 12.4073 7.25392 12.6093C7.12114 12.9299 7.07521 12.9509 6.62169 12.8979C5.81661 12.8041 4.639 12.4959 4.15829 12.2533C3.54704 11.9448 2.70165 11.1479 2.44818 10.6412C2.18579 10.117 2.05407 9.58129 2.18755 9.58129C2.2438 9.58129 2.89911 9.86875 3.64396 10.2201ZM10.1298 14.1262L10.7283 14.6143L10.432 15.5841C10.1671 16.4513 10.1347 16.7648 10.1264 18.5461C10.1162 20.7289 10.2496 21.4956 10.8843 22.9069C11.8419 25.0362 13.121 25.5169 14.3529 24.2104C15.4204 23.0782 16.1763 20.1345 15.9804 17.8723L15.9019 16.9641H16.8421H17.7823L17.8713 17.4036C18.0199 18.137 17.9799 21.7566 17.8113 22.8235C17.0629 27.5613 15.0659 30.9094 12.9883 30.9094C11.3291 30.9094 9.64888 28.7249 8.70693 25.343C7.85392 22.2803 7.85497 17.9642 8.70962 14.69C9.07056 13.3073 9.08954 13.2705 9.33774 13.4771C9.44415 13.5657 9.80052 13.8578 10.1298 14.1262ZM13.322 16.9641H13.8984L13.9788 17.7149C14.1284 19.1106 13.7759 21.2828 13.2292 22.3356L13.0063 22.7649L12.7119 22.1049C12.1475 20.8397 11.9032 18.7762 12.1256 17.1535C12.1997 16.613 12.2036 16.6089 12.4731 16.7855C12.6239 16.8844 13.003 16.9641 13.322 16.9641ZM22.5457 18.9563L24.5586 20.9485H35.2464H45.934L45.8586 21.9153C45.7027 23.9167 45.2238 25.9988 44.594 27.4143C43.9358 28.8933 42.7738 30.2276 41.7198 30.7148L41.1718 30.968L28.9551 30.9994C22.2358 31.0166 16.7383 31.0004 16.7383 30.9631C16.7383 30.9258 16.9277 30.6481 17.1594 30.3457C17.6861 29.6586 18.6151 27.747 19.0153 26.5271C19.7039 24.4282 20.0195 22.0689 20.0195 19.0195C20.0195 16.9826 20.0218 16.9641 20.2761 16.9641C20.4513 16.9641 21.1725 17.5971 22.5457 18.9563ZM23.3541 26.2752C22.8742 26.755 22.9746 27.5141 23.5579 27.8157C24.0046 28.0468 24.5385 27.9326 24.7873 27.553C25.4336 26.5664 24.1802 25.4489 23.3541 26.2752ZM27.3384 26.2752C26.8586 26.755 26.959 27.5141 27.5422 27.8157C28.23 28.1714 28.9388 27.7519 28.9608 26.9761C28.9851 26.1215 27.9424 25.6711 27.3384 26.2752ZM31.3452 26.2749C30.6322 26.9356 31.2536 28.1305 32.2017 27.9223C32.9836 27.7505 33.236 26.7831 32.634 26.2653C32.2177 25.9071 31.7383 25.9107 31.3452 26.2749ZM39.9376 39.6692C39.9348 44.7122 39.8994 46.3645 39.7911 46.5055C39.5149 46.8653 39.1313 46.9641 38.0097 46.9641C36.7021 46.9641 36.2823 46.8075 36.0868 46.247C35.9979 45.9919 35.957 43.8488 35.957 39.4466V33.0188H37.9492H39.9414L39.9376 39.6692ZM57.347 34.0963C58.0002 34.394 57.9883 34.2377 57.9883 42.441C57.9883 48.052 57.9522 50.0792 57.8482 50.3072C57.6192 50.8098 57.1927 50.9485 55.8757 50.9485C54.7204 50.9485 54.6799 50.9395 54.3464 50.6059L54.0039 50.2634V42.5123C54.0039 37.4423 54.0455 34.6836 54.124 34.5367C54.3498 34.1148 54.8249 33.9659 55.9613 33.961C56.5584 33.9584 57.1768 34.0188 57.347 34.0963ZM52.0117 42.9797V44.9719H47.0312H42.0508V42.9797V40.9875H47.0312H52.0117V42.9797Z" fill="url(#paint0_linear_1062_103)"/>
<defs>
<linearGradient id="paint0_linear_1062_103" x1="0" y1="7" x2="47.8055" y2="63.312" gradientUnits="userSpaceOnUse">
<stop stop-color="#594372"/>
<stop offset="1" stop-color="#7A5B9E"/>
</linearGradient>
</defs>
</svg>
