<svg width="60" height="60" viewBox="0 0 60 60" fill="none" xmlns="http://www.w3.org/2000/svg">
<g clip-path="url(#clip0_1060_55)">
<path fill-rule="evenodd" clip-rule="evenodd" d="M34.2875 0.32332C33.996 0.614883 33.9573 0.751758 33.8951 1.71223C33.7685 3.66645 33.0954 5.15355 31.5291 6.93984L30.6332 7.96172L21.8204 7.99453L13.0078 8.02734L12.3902 8.37891C11.8958 8.66027 10.6419 9.98648 6.10734 15.0238C2.99145 18.4852 0.342656 21.5174 0.221016 21.7621C0.00738281 22.1921 0 22.8005 0 40.0195V57.832L0.253359 58.3008C0.55207 58.8533 1.12664 59.4186 1.69922 59.7232C2.09496 59.9338 2.87309 59.9414 23.9094 59.9414H45.7093L46.2598 59.6484C47.1009 59.2008 59.1668 48.2688 59.5622 47.5962L59.8828 47.0508V28.5938V10.1367L59.6231 9.65121C59.4804 9.38426 59.14 8.97434 58.8666 8.74043C57.9611 7.96523 58.0002 7.96875 50.1349 7.96875C46.2472 7.96875 43.0664 7.94086 43.0664 7.90676C43.0664 7.87277 43.2186 7.54313 43.4046 7.17434C44.1889 5.61914 44.7586 3.53074 44.8999 1.69219C44.9747 0.720586 44.9741 0.717773 44.6155 0.359297C44.4115 0.155156 44.1332 0 43.971 0C43.7542 0 41.3265 1.36676 39.1087 2.73738C39.0564 2.76984 38.172 2.16785 37.1434 1.3998C35.078 -0.1425 34.8423 -0.231445 34.2875 0.32332ZM37.2911 4.01801C37.9495 4.50504 38.5916 4.93641 38.7179 4.97648C39.0282 5.07504 39.4685 4.87043 41.1914 3.82746C41.9971 3.33984 42.6742 2.99191 42.696 3.05449C42.7179 3.11707 42.5998 3.6423 42.4336 4.22168C42.1174 5.32371 41.6372 6.37477 41.0427 7.26562C40.8491 7.55566 37.9432 10.5484 34.5852 13.916L28.4796 20.0391H24.9084H21.3374L27.378 13.9746C30.7614 10.5779 33.6543 7.57512 33.9541 7.14844C34.8021 5.94199 35.3229 4.81934 35.6838 3.41906C35.778 3.05367 35.8534 2.94305 35.9541 3.02238C36.0309 3.08285 36.6325 3.53086 37.2911 4.01801ZM28.418 10.0484C28.418 10.0964 26.1901 12.364 23.4673 15.0874L18.5167 20.0391H11.4555C7.57195 20.0391 4.39453 20.0082 4.39453 19.9705C4.39453 19.8348 12.9784 10.3663 13.2824 10.1666C13.5703 9.97758 14.153 9.96211 21.0059 9.96152C25.0826 9.96117 28.418 10.0003 28.418 10.0484ZM56.4258 10.0493C56.4258 10.0979 54.1376 12.4254 51.341 15.2215L46.2561 20.3053L45.8742 20.1722C45.6056 20.0786 43.4122 20.0391 38.4786 20.0391C34.6211 20.0391 31.4648 19.9997 31.4648 19.9516C31.4648 19.9036 33.6927 17.636 36.4155 14.9126L41.3661 9.96094H48.896C53.0374 9.96094 56.4258 10.0007 56.4258 10.0493ZM57.7447 46.7291C57.6316 46.8744 55.4033 48.9185 52.793 51.2714L48.0469 55.5495L47.9883 38.9368C47.945 26.6715 47.8941 22.2476 47.7935 22.0312C47.6623 21.7489 47.8439 21.5513 52.774 16.6109L57.8906 11.4833L57.9205 28.9741C57.9489 45.5002 57.9391 46.4794 57.7447 46.7291ZM17.9883 29.7571V37.483L18.2971 37.7258C18.9286 38.2226 19.1491 38.1178 21.6067 36.1521C22.8557 35.1532 23.9104 34.3361 23.9504 34.3362C23.9906 34.3363 25.0453 35.1537 26.2942 36.1526C28.2277 37.699 28.6245 37.9688 28.9656 37.9688C29.2346 37.9688 29.4606 37.8743 29.6537 37.6811L29.9414 37.3935V29.7123V22.0312H37.6106H45.2798L45.6087 22.314L45.9375 22.5969L45.9712 39.6285C45.9899 48.9959 45.9732 56.8375 45.9342 57.0541C45.8953 57.2708 45.7375 57.574 45.5835 57.728L45.3036 58.0078H23.9612H2.61867L2.27613 57.6653L1.93359 57.3227V40.0813C1.93359 25.0938 1.95621 22.7961 2.10691 22.5048C2.20219 22.3205 2.34727 22.1427 2.42918 22.1096C2.51109 22.0767 6.04535 22.0455 10.2832 22.0405L17.9883 22.0312V29.7571ZM27.9492 28.4812V34.9312L26.4933 33.7571C24.6701 32.287 24.2359 31.9922 23.8941 31.9922C23.722 31.9922 22.9731 32.51 21.8603 33.3984C20.8915 34.1719 20.0722 34.8047 20.0396 34.8047C20.0071 34.8047 19.9805 31.9307 19.9805 28.418V22.0312H23.9648H27.9492V28.4812ZM4.99793 48.2456C4.78195 48.352 4.46555 48.65 4.2948 48.9078C3.98871 49.3699 3.98379 49.4096 3.94676 51.7293C3.92355 53.1749 3.95742 54.2454 4.03453 54.5057C4.21113 55.1017 4.59023 55.5405 5.14699 55.7934C5.59793 55.9982 6.09609 56.0105 13.9453 56.0105C21.7945 56.0105 22.2927 55.9982 22.7436 55.7934C23.2998 55.5408 23.6788 55.1025 23.8571 54.5057C23.9358 54.2425 23.9691 53.1909 23.945 51.7294C23.9067 49.4079 23.9021 49.3704 23.5944 48.9059C22.9955 48.0016 23.5031 48.0465 13.9276 48.0496C6.23238 48.0519 5.35195 48.0713 4.99793 48.2456ZM39.3793 49.1095C38.1019 50.3453 37.8489 50.7656 38.0443 51.3266C38.1349 51.5862 38.3034 51.758 38.5815 51.8742C38.951 52.0286 39.0258 52.0232 39.4307 51.8121L39.8747 51.5807L39.9424 51.9986C40.1603 53.3406 41.8945 53.2671 41.8945 51.9159V51.4383L42.2427 51.6957C42.9679 52.2318 43.8867 51.8337 43.8867 50.9835C43.8867 50.6041 43.7617 50.4377 42.6251 49.3046C41.467 48.1502 41.327 48.0469 40.9206 48.0469C40.5216 48.0469 40.369 48.1521 39.3793 49.1095ZM21.9727 52.0312V54.0234H13.9453H5.91797V52.0312V50.0391H13.9453H21.9727V52.0312ZM38.2031 54.3963C37.8224 54.8488 37.868 55.3482 38.3268 55.752C38.615 56.0057 38.7108 56.0156 40.8521 56.0156C43.637 56.0156 43.8867 55.9239 43.8867 54.9013C43.8867 54.6173 43.8016 54.4423 43.5779 54.2664C43.2886 54.0388 43.1195 54.0234 40.893 54.0234H38.517L38.2031 54.3963Z" fill="url(#paint0_linear_1060_55)"/>
</g>
<defs>
<linearGradient id="paint0_linear_1060_55" x1="0" y1="0" x2="62.889" y2="56.6823" gradientUnits="userSpaceOnUse">
<stop stop-color="#594372"/>
<stop offset="1" stop-color="#7A5B9E"/>
</linearGradient>
<clipPath id="clip0_1060_55">
<rect width="60" height="60" fill="white"/>
</clipPath>
</defs>
</svg>
