<svg width="60" height="60" viewBox="0 0 60 60" fill="none" xmlns="http://www.w3.org/2000/svg">
<g clip-path="url(#clip0_1060_53)">
<path fill-rule="evenodd" clip-rule="evenodd" d="M33.7665 0.12276C25.143 1.1137 18.2527 7.43385 16.4066 16.0461C16.1181 17.3926 16.0787 18.5919 16.0737 26.2121L16.0712 29.9914H15.2979C14.8238 29.9914 14.3678 30.0658 14.1195 30.1837C13.5852 30.4372 13.1352 31.044 13.0588 31.614C12.936 32.5296 13.1391 32.8256 15.5895 35.3041C16.8534 36.5825 18.03 37.703 18.204 37.7943C18.6112 38.0077 19.3931 38.0068 19.7978 37.7926C19.9718 37.7005 20.6933 37.0413 21.4013 36.3277C22.1092 35.6143 22.7295 35.0305 22.7798 35.0305C22.8302 35.0305 23.1738 35.2772 23.5436 35.5788C28.2761 39.4394 34.8596 40.8812 40.8564 39.37C43.5028 38.7032 45.7472 37.6219 48.0466 35.9062L49.2603 35.0006L50.6248 36.3505C51.3752 37.0928 52.1044 37.7588 52.2451 37.8302C52.629 38.0251 53.4678 37.9867 53.8898 37.7551C54.2959 37.5321 58.6034 33.1413 58.8255 32.7237C59.0591 32.285 58.9936 31.3618 58.6982 30.9277C58.2329 30.244 57.8706 30.0587 56.9051 30.0099L56.0321 29.9657L56.0152 26.2579C55.9782 18.2354 55.9692 17.9062 55.7501 16.6906C55.0152 12.6118 53.1775 9.00206 50.3595 6.10178C47.6503 3.31354 44.5169 1.50874 40.796 0.593268C38.4705 0.0210409 36.0572 -0.140443 33.7665 0.12276ZM39.4226 2.33245C46.3358 3.68174 51.8776 8.99198 53.5076 15.829C53.813 17.1098 54.04 18.9761 54.04 20.206V20.9426L52.7216 20.9852C51.1908 21.0346 50.6828 21.2526 50.2863 22.0298C50.0711 22.4518 50.0556 22.733 50.0556 26.2367V29.9914L49.2646 29.9933C48.2359 29.9958 47.6457 30.3066 47.2648 31.0465C46.9113 31.7331 46.9709 32.4135 47.4429 33.0833L47.7855 33.5695L47.1921 34.0516C45.1198 35.735 42.3681 37.0346 39.6492 37.6141C38.1902 37.925 35.2809 38.0437 33.8251 37.8516C30.5061 37.4137 27.0231 35.9207 24.6932 33.9371L24.2331 33.5455L24.5693 33.1046C25.0444 32.4817 25.114 31.5078 24.7242 30.9397C24.2457 30.2424 23.8896 30.0588 22.9207 30.0099L22.0478 29.9657L22.0426 26.3751C22.0372 22.6219 21.9882 22.1934 21.5023 21.6468C21.0723 21.1632 20.4273 20.9732 19.206 20.9705L18.0634 20.968V19.6319C18.0634 11.4945 24.2461 4.01057 32.3017 2.39713C34.6834 1.92018 37.1933 1.89733 39.4226 2.33245ZM35.3909 7.24659C35.1648 7.42952 35.1034 7.61315 35.0556 8.24971L34.997 9.02889L34.2353 9.28553C31.1671 10.3194 29.4702 13.3032 30.197 16.3867C30.6738 18.4095 32.1612 19.9974 34.2353 20.6978L34.997 20.9551L35.0278 24.8873C35.0502 27.7368 35.0224 28.8195 34.927 28.8195C34.8546 28.8195 34.4804 28.6516 34.0954 28.4464C32.9161 27.8178 32.2012 26.708 32.0232 25.2292C31.9145 24.3264 31.6519 24.0148 30.9996 24.0148C30.1976 24.0148 29.901 24.6624 30.1154 25.9455C30.4856 28.1609 32.0767 30.0004 34.2186 30.6891L35.0556 30.9583V31.6849C35.0556 32.2899 35.0996 32.4512 35.3193 32.6489C35.694 32.9861 35.9354 33.0462 36.3438 32.9039C36.8055 32.7428 36.9693 32.4359 37.045 31.5889L37.1064 30.9014L37.7573 30.7005C38.778 30.3856 39.565 29.8989 40.3125 29.1205C41.4442 27.9419 41.9706 26.6378 41.9682 25.0189C41.9667 23.948 41.7899 23.1701 41.3521 22.3087C40.6126 20.8533 39.3874 19.8004 37.8619 19.309L37.0478 19.0468V15.084V11.121L37.4872 11.3036C38.9118 11.8952 39.9577 13.314 39.9725 14.675C39.9782 15.1877 40.2342 15.7502 40.5101 15.8561C40.9254 16.0155 41.4618 15.9271 41.7149 15.6577C41.9129 15.4468 41.9691 15.2448 41.9668 14.7495C41.9556 12.2594 40.0807 9.89456 37.5893 9.22823L37.0478 9.08338V8.41354C37.0478 7.86393 36.9933 7.67901 36.7444 7.38323C36.3833 6.95409 35.8222 6.89749 35.3909 7.24659ZM35.0556 14.9914C35.0556 17.1183 35.0336 18.8586 35.0067 18.8586C34.9799 18.8586 34.7156 18.7548 34.4197 18.628C33.6711 18.3071 32.7751 17.4299 32.3959 16.6468C32.125 16.0876 32.0766 15.8363 32.0766 14.9914C32.0766 14.1465 32.125 13.8952 32.3959 13.336C32.7628 12.578 33.6615 11.6824 34.3839 11.3545C34.6567 11.2306 34.9193 11.1282 34.9677 11.1268C35.0161 11.1254 35.0556 12.8644 35.0556 14.9914ZM37.6936 21.3711C38.2829 21.6174 39.2521 22.5733 39.5991 23.2508C40.0305 24.0933 40.0966 25.4582 39.7506 26.3758C39.3529 27.4299 38.2939 28.4635 37.3114 28.7567L37.0478 28.8353V25.0188C37.0478 22.4735 37.0881 21.2023 37.1687 21.2023C37.2353 21.2023 37.4714 21.2783 37.6936 21.3711ZM20.0556 27.2772L20.1142 31.5358L20.3909 31.7596C20.6196 31.9448 20.8594 31.9836 21.7767 31.9836H22.8859L20.9749 33.9768L19.0641 35.9701L17.0967 34.0061L15.1294 32.0422L16.3008 31.9836C18.1359 31.8918 17.9978 32.2743 18.0383 27.171L18.0718 22.9508L19.0344 22.9848L19.997 23.0187L20.0556 27.2772ZM54.04 27.1842V31.4083L54.3277 31.6959C54.5933 31.9617 54.7016 31.9836 55.7475 31.9836H56.8798L54.9704 33.9831L53.0611 35.9827L51.0874 34.0124L49.1138 32.0422L50.2852 31.9836C52.1202 31.8918 51.9821 32.2736 52.0227 27.1757L52.0562 22.9601H53.0481H54.04V27.1842ZM54.8017 39.1721C54.0511 39.4174 53.615 39.7506 49.3525 43.3365C45.632 46.4663 45.2954 46.7217 45.1337 46.5383C44.6065 45.9406 43.8482 45.4345 43.1633 45.223C42.4618 45.0063 42.0602 44.9914 36.9056 44.9914H31.3975L30.5375 44.4162C28.6584 43.1594 26.855 42.8057 23.9475 43.1237C21.5051 43.3906 18.9711 44.0723 16.7268 45.066L15.566 45.5801L14.9753 45.2858L14.3845 44.9914H8.02852C3.82254 44.9914 1.56082 45.0336 1.3425 45.1161C0.893555 45.2856 0.373008 45.7913 0.177891 46.2474C-0.0592969 46.8017 -0.0592969 58.1811 0.177891 58.7354C0.373008 59.1915 0.893555 59.6971 1.3425 59.8667C1.5607 59.9492 3.81316 59.9914 7.99664 59.9914C14.7957 59.9914 14.8037 59.9907 15.4522 59.3814C15.7052 59.1438 15.759 59.1396 16.8601 59.2717C22.0077 59.8901 25.2946 60.0139 35.4071 59.9701C44.02 59.9328 44.0204 59.9328 44.6699 59.6698C45.0272 59.5252 45.6217 59.1561 45.9911 58.8495C46.3604 58.543 49.4695 55.4307 52.9001 51.9333C60.0848 44.609 59.9579 44.7694 59.9579 43.011C59.9579 42.1656 59.9079 41.8964 59.6476 41.3412C58.9923 39.9435 57.7093 39.103 56.1493 39.0493C55.6561 39.0323 55.0648 39.0862 54.8017 39.1721ZM56.7702 41.1653C57.3482 41.4069 57.8782 42.0816 57.9698 42.6925C58.1191 43.6884 57.9798 43.8863 54.9898 46.925C45.8851 56.1778 44.5504 57.5031 44.1251 57.7142C43.6895 57.9304 43.2954 57.9423 35.4071 57.9772C25.6254 58.0204 21.7629 57.8731 17.0966 57.2789L16.0712 57.1482V52.3514V47.5544L17.0611 47.097C19.3863 46.0228 22.0357 45.3168 24.622 45.0824C26.9406 44.8723 28 45.1129 29.6591 46.2261C30.0923 46.5167 30.6264 46.806 30.8461 46.8691C31.0805 46.9362 33.4969 46.9836 36.6962 46.9836C39.9066 46.9836 42.3116 47.0308 42.5475 47.0984C42.7678 47.1616 43.1018 47.3594 43.2896 47.5379C44.2757 48.475 44.1936 49.8563 43.1038 50.6642C42.7807 50.9037 42.632 50.9108 36.6776 50.968L30.582 51.0265L30.2993 51.3554C29.9298 51.785 29.9317 52.3 30.3042 52.6724L30.5918 52.9601H36.6865C43.6451 52.9601 43.5136 52.9769 44.6658 51.9411C45.3911 51.2889 45.8061 50.5072 45.9911 49.4448L46.1298 48.6472L50.4492 45.0322C52.8248 43.044 54.9342 41.3271 55.1367 41.217C55.5844 40.9736 56.2601 40.9522 56.7702 41.1653ZM13.9618 52.4914V57.9992H7.98527H2.00871V52.4914V46.9836H7.98527H13.9618V52.4914Z" fill="url(#paint0_linear_1060_53)"/>
</g>
<defs>
<linearGradient id="paint0_linear_1060_53" x1="0" y1="0" x2="62.9441" y2="56.7561" gradientUnits="userSpaceOnUse">
<stop stop-color="#594372"/>
<stop offset="1" stop-color="#7A5B9E"/>
</linearGradient>
<clipPath id="clip0_1060_53">
<rect width="60" height="60" fill="white"/>
</clipPath>
</defs>
</svg>
