<svg width="60" height="60" viewBox="0 0 60 60" fill="none" xmlns="http://www.w3.org/2000/svg">
<path fill-rule="evenodd" clip-rule="evenodd" d="M16.6514 3.30352C15.9026 3.67664 15.3882 4.27863 15.1582 5.05078C15.0491 5.41734 14.3196 6.63504 13.2102 8.30273L11.4367 10.9688L8.78847 10.9705C5.84612 10.9724 5.18565 11.0691 3.92847 11.6821C2.20874 12.5207 1.08913 13.8165 0.294716 15.888L0.0465125 16.5352L0.0149891 34.5121C-0.0198156 54.3831 -0.0603624 53.2359 0.724677 54.5463C1.21358 55.3622 1.9685 56.029 2.91761 56.4832L3.67932 56.8477L29.7493 56.878C58.8625 56.9119 56.3981 56.9841 57.7785 56.0563C58.6234 55.4885 59.2851 54.6773 59.6665 53.7422L59.9293 53.0977L59.9621 35.2266C59.9985 15.4199 60.0383 16.5315 59.2336 14.8826C58.5559 13.4939 57.4253 12.3517 56.0662 11.6827C54.8331 11.0755 54.1263 10.9724 51.1861 10.9705L48.5365 10.9688L46.7201 8.23277C45.6935 6.68672 44.8697 5.32336 44.8257 5.09801C44.7007 4.45781 44.0331 3.6566 43.3344 3.30855L42.7153 3H29.9879H17.2605L16.6514 3.30352ZM42.6412 5.22363C43.1531 5.73551 43.0396 6.51398 42.4063 6.83449C41.9838 7.04824 17.992 7.04824 17.5696 6.83449C16.9363 6.51398 16.8227 5.73551 17.3346 5.22363C17.5622 4.99605 17.7756 4.99219 29.9879 4.99219C42.2003 4.99219 42.4137 4.99605 42.6412 5.22363ZM17.1692 8.81063C17.6294 8.94914 19.7458 8.97656 29.9879 8.97656C43.2871 8.97656 42.8993 8.99449 43.7585 8.33918L44.1593 8.03356L45.1009 9.4391C45.6189 10.2122 46.0426 10.8725 46.0426 10.9068C46.0426 10.9409 38.818 10.9688 29.9879 10.9688C21.1578 10.9688 13.9332 10.9409 13.9332 10.9068C13.9332 10.8725 14.357 10.2122 14.875 9.4391L15.8166 8.03356L16.2173 8.33918C16.4376 8.50723 16.8661 8.71945 17.1692 8.81063ZM54.3814 13.159L54.6929 13.2984L54.3814 14.0379L54.07 14.7773L54.0081 24.6211C53.9741 30.0352 53.9345 34.4788 53.9202 34.4959C53.9059 34.5129 53.7228 34.6314 53.5133 34.7591C53.1424 34.9853 52.8981 34.9914 44.1844 34.9917C35.7104 34.9922 35.2405 34.9813 35.315 34.7871C35.8521 33.3889 36.0974 31.1823 35.8544 29.9333C35.3825 27.5067 33.2668 25.446 30.8245 25.0339C27.8065 24.5249 24.7228 26.7237 24.122 29.8131C23.8704 31.1072 24.1151 33.3663 24.6608 34.7871C24.7353 34.9813 24.2665 34.9922 15.8149 34.9922C6.08273 34.9922 6.33315 35.0091 6.07663 34.3344C6.00866 34.1557 5.96331 30.3132 5.96143 24.5842L5.95839 15.1289L5.66882 14.3086C5.50956 13.8574 5.36589 13.4396 5.3496 13.3802C5.2419 12.9875 5.89768 12.9775 30.1637 12.9987C48.3575 13.0145 54.1444 13.0528 54.3814 13.159ZM3.78374 14.9555C3.95155 15.3748 3.97229 16.4632 3.97229 24.8366C3.97229 35.5787 3.93081 35.079 4.90417 36.0525C5.878 37.0262 5.37292 36.9844 16.1625 36.9844H25.6148L25.7446 37.4238C25.8159 37.6656 25.91 38.1395 25.9537 38.4771C26.0299 39.0641 26.0151 39.1111 25.6161 39.5528C25.0897 40.1354 24.9501 40.6409 24.9501 41.9648C24.9501 43.2851 25.1018 43.8404 25.5976 44.3363L25.9877 44.7264L26.025 47.3886L26.0621 50.0508L26.4641 50.7921C26.9065 51.6081 27.5008 52.1808 28.3314 52.5912C29.1176 52.9796 30.8583 52.9796 31.6445 52.5912C32.475 52.1808 33.0694 51.6081 33.5117 50.7921L33.9137 50.0508L33.9508 47.3886L33.9881 44.7264L34.3782 44.3363C34.8741 43.8404 35.0257 43.2851 35.0257 41.9648C35.0257 40.6409 34.8861 40.1354 34.3597 39.5528C33.9607 39.1111 33.9459 39.0641 34.0221 38.4771C34.0658 38.1395 34.1599 37.6656 34.2313 37.4238L34.361 36.9844H43.8133C54.6029 36.9844 54.0978 37.0262 55.0717 36.0525C56.045 35.079 56.0035 35.5787 56.0035 24.8366C56.0035 16.4234 56.0237 15.3762 56.194 14.9507C56.2987 14.6889 56.4438 14.4941 56.5162 14.518C56.7587 14.5977 57.3872 15.5241 57.6636 16.2091L57.9371 16.8867L57.9733 34.4648C57.9988 46.875 57.9718 52.2152 57.8814 52.6289C57.7007 53.4548 57.098 54.229 56.3422 54.6055L55.7231 54.9141H29.9879H4.25272L3.64628 54.6118C2.9305 54.2552 2.37034 53.5951 2.14347 52.8414C2.00694 52.388 1.98011 49.435 1.98011 34.881C1.98011 16.1692 1.95972 16.8448 2.55983 15.6683C2.81694 15.1644 3.35765 14.4844 3.5012 14.4844C3.553 14.4844 3.68015 14.6964 3.78374 14.9555ZM31.3592 27.2781C32.7467 27.7941 33.8317 29.3058 33.9443 30.8801C33.9934 31.5661 33.819 33.0947 33.6595 33.3765C33.6335 33.4225 33.42 33.2473 33.185 32.9872C32.389 32.1061 32.0569 32.0039 29.9879 32.0039C27.9201 32.0039 27.5866 32.1062 26.7933 32.9844L26.3686 33.4545L26.2173 33.0221C26.1281 32.7673 26.0652 32.0367 26.064 31.2422C26.0623 30.0047 26.0887 29.8405 26.3867 29.2334C26.9313 28.1245 28.1058 27.2256 29.2754 27.0221C29.9401 26.9066 30.5675 26.9837 31.3592 27.2781ZM31.6376 34.28L31.9801 34.6226V36.7996V38.9766H29.9879H27.9957V36.7996V34.6226L28.3383 34.28C28.6759 33.9424 28.6994 33.9375 29.9879 33.9375C31.2764 33.9375 31.2999 33.9424 31.6376 34.28ZM33.0348 41.9648V42.9609H29.9879H26.941V41.9648V40.9688H29.9879H33.0348V41.9648ZM31.9801 47.1548C31.9801 49.2053 31.9619 49.3925 31.7164 49.879C31.0113 51.2761 28.9645 51.2761 28.2594 49.879C28.0139 49.3925 27.9957 49.2053 27.9957 47.1548V44.9531H29.9879H31.9801V47.1548ZM4.56175 51.0796C3.9178 51.4055 3.81339 52.1868 4.34741 52.6842C4.57382 52.8953 4.75804 52.9219 5.9919 52.9219C7.31085 52.9219 7.39593 52.9072 7.66897 52.6342C8.15261 52.1507 8.02675 51.3957 7.40776 51.066C7.06101 50.8814 4.93347 50.8915 4.56175 51.0796ZM10.5371 51.0802C9.92577 51.3895 9.82932 52.1223 10.3295 52.6582L10.5757 52.9219H16.9785C23.2483 52.9219 23.3865 52.917 23.6362 52.6842C24.1515 52.2042 24.0451 51.3948 23.4254 51.0813C23.0026 50.8675 10.9597 50.8664 10.5371 51.0802ZM36.5504 51.0813C35.9307 51.3948 35.8243 52.2042 36.3396 52.6842C36.5893 52.917 36.7275 52.9219 42.9974 52.9219H49.4001L49.6416 52.6582C49.7742 52.5131 49.918 52.2785 49.961 52.1367C50.0664 51.7889 49.7385 51.1822 49.3692 51.0418C48.8937 50.861 36.913 50.8979 36.5504 51.0813ZM52.5465 51.0713C51.9456 51.4158 51.8317 52.1591 52.3069 52.6342C52.5799 52.9072 52.665 52.9219 53.9839 52.9219C55.2178 52.9219 55.402 52.8953 55.6284 52.6842C56.1625 52.1868 56.058 51.4055 55.4141 51.0796C55.0452 50.8929 52.8684 50.8866 52.5465 51.0713Z" fill="url(#paint0_linear_1062_93)"/>
<defs>
<linearGradient id="paint0_linear_1062_93" x1="0" y1="3" x2="56.8502" y2="60.0784" gradientUnits="userSpaceOnUse">
<stop stop-color="#594372"/>
<stop offset="1" stop-color="#7A5B9E"/>
</linearGradient>
</defs>
</svg>
