<svg width="49" height="60" viewBox="0 0 49 60" fill="none" xmlns="http://www.w3.org/2000/svg">
<path fill-rule="evenodd" clip-rule="evenodd" d="M22.7326 0.169941C21.1575 0.608222 19.8646 1.80646 19.3314 3.32205L19.1182 3.92803L16.7946 3.98662C14.8903 4.03467 14.404 4.08178 14.1004 4.24795C13.624 4.50869 13.2754 4.956 13.1046 5.52588L12.9689 5.97881H8.8212C4.07018 5.97881 3.51741 6.04807 2.37694 6.78646C1.21268 7.54033 0.486001 8.55318 0.180845 9.84764C0.023462 10.5155 0.001548 13.3165 2.45668e-05 32.9453C-0.00114731 47.4673 0.0396339 55.5006 0.116392 55.9054C0.478853 57.8169 1.90151 59.3253 3.81096 59.8226C4.41717 59.9806 6.86147 60.0022 24.0217 60.0022C41.1819 60.0022 43.6262 59.9806 44.2324 59.8226C46.1419 59.3253 47.5646 57.8169 47.927 55.9054C48.0038 55.5006 48.0446 47.4673 48.0434 32.9453C48.0419 13.3165 48.0199 10.5155 47.8626 9.84764C47.5574 8.55318 46.8307 7.54033 45.6665 6.78646C44.526 6.04807 43.9732 5.97881 39.2222 5.97881H35.0745L34.9388 5.52588C34.768 4.956 34.4194 4.50869 33.943 4.24795C33.6394 4.08178 33.1531 4.03467 31.2488 3.98662L28.9252 3.92803L28.712 3.32205C27.8631 0.908808 25.1732 -0.509161 22.7326 0.169941ZM25.0221 2.18978C25.644 2.40178 26.6271 3.27881 26.7442 3.72623L26.8123 3.98662H24.0217H21.2311L21.2992 3.72623C21.3367 3.58291 21.6115 3.22162 21.9098 2.92326C22.7799 2.05326 23.8684 1.79674 25.0221 2.18978ZM33.0451 8.56279C33.0451 11.2552 32.9728 11.706 32.5125 11.8826C32.2647 11.9776 15.7787 11.9776 15.5309 11.8826C15.0706 11.706 14.9983 11.2552 14.9983 8.56279V5.97881H24.0217H33.0451V8.56279ZM13.0061 8.96111V9.95111L9.22678 9.9865C5.51698 10.0211 5.43952 10.0267 5.01389 10.2913C4.77553 10.4397 4.45913 10.7561 4.31077 10.9944L4.04124 11.428L4.01065 32.739C3.99049 46.8708 4.02014 54.1987 4.09901 54.4913C4.26178 55.0961 4.63584 55.5376 5.20385 55.7957C5.66042 56.003 6.30413 56.0128 19.5765 56.0153C31.9142 56.0176 33.5427 55.997 34.1078 55.8322C34.7145 55.6553 34.9492 55.4424 39.1128 51.2912C42.1598 48.2531 43.5599 46.7763 43.7417 46.4085L44.0022 45.8812V28.6546V11.428L43.7326 10.9944C43.5843 10.7561 43.2679 10.4397 43.0295 10.2913C42.6039 10.0267 42.5264 10.0211 38.8166 9.9865L35.0373 9.95111V8.95455V7.95787L39.4026 7.99373C44.1999 8.0331 44.1708 8.029 45.0281 8.78182C45.2608 8.98607 45.5733 9.40139 45.7227 9.70467L45.9944 10.2562L46.0252 32.7504C46.0589 57.4935 46.1024 55.9538 45.3453 56.8676C45.1449 57.1094 44.7344 57.4521 44.433 57.6293L43.885 57.9515H24.0217H4.15842L3.67292 57.6918C3.01338 57.339 2.37272 56.5596 2.16354 55.8552C2.01342 55.3498 1.99081 52.3179 1.99327 33.0571C1.99526 18.3221 2.03663 10.6645 2.11631 10.3147C2.35409 9.27002 3.17522 8.40939 4.19604 8.13447C4.5851 8.02971 5.94377 7.98447 8.87522 7.97885L13.0061 7.97099V8.96111ZM13.4764 12.5257C13.8294 13.0995 14.4239 13.5946 15.0352 13.8238C15.256 13.9067 18.2473 13.9476 24.0746 13.9476H32.784L33.4126 13.6213C33.8808 13.3783 34.156 13.1236 34.4906 12.6235L34.9399 11.952L38.475 11.9829L42.01 12.014L42.0396 28.5081L42.0694 45.0022H38.3374C34.6578 45.0022 34.5982 45.0061 34.0889 45.2747C33.767 45.4445 33.4739 45.7204 33.3107 46.0071C33.0549 46.4567 33.049 46.5525 33.047 50.2469L33.0451 54.0266L19.5393 53.9969L6.03342 53.9671L6.00331 33.1077C5.98678 21.6351 5.99838 12.1825 6.02897 12.1019C6.07186 11.9891 6.89651 11.9554 9.60506 11.9554H13.1254L13.4764 12.5257ZM12.1272 16.2837C11.8694 16.4056 11.5185 16.6285 11.3475 16.7792C11.0662 17.027 8.59022 20.5048 8.19084 21.2132C8.05432 21.4553 8.02561 22.6143 8.02561 27.8929C8.02561 31.4056 8.0651 34.4206 8.1135 34.5928C8.23924 35.0413 8.77174 35.6328 9.21752 35.819C9.52725 35.9483 11.0235 35.9785 17.0746 35.9769L24.549 35.9749L25.0178 35.7127C25.3278 35.5394 25.5768 35.272 25.7528 34.9237L26.0189 34.3968L25.9872 27.8929L25.9553 21.389L24.8058 19.3382C23.5783 17.1481 23.1976 16.6582 22.4371 16.29C21.9808 16.0691 21.7104 16.0571 17.2757 16.0595C12.9325 16.0619 12.5622 16.078 12.1272 16.2837ZM21.7774 18.2542C21.9789 18.4244 22.8498 19.8374 22.8498 19.994C22.8498 20.02 20.2922 20.0413 17.1662 20.0413C14.0403 20.0413 11.4826 20.0088 11.4826 19.9691C11.4826 19.8672 12.2855 18.7569 12.6381 18.3714L12.9327 18.0491H17.2337C21.1594 18.0491 21.556 18.0671 21.7774 18.2542ZM24.0217 28.0101V33.9866H17.049H10.0764V28.0101V22.0335H17.049H24.0217V28.0101ZM29.5881 23.1102C28.9866 23.4611 28.8734 24.2005 29.3485 24.6755L29.636 24.9632H34.0412H38.4464L38.734 24.6755C39.1065 24.3031 39.1084 23.7881 38.7389 23.3584L38.4563 23.0296L34.1393 23.0016C31.0173 22.9813 29.7576 23.0114 29.5881 23.1102ZM29.7639 27.0353C29.0536 27.3063 28.8181 28.21 29.3319 28.6928C29.6005 28.9451 29.6463 28.9476 34.0248 28.9476H38.4464L38.734 28.6599C39.1065 28.2874 39.1084 27.7725 38.739 27.3428L38.4563 27.014L34.198 26.9911C31.8559 26.9786 29.8606 26.9984 29.7639 27.0353ZM12.3563 30.2899C12.1576 30.4885 12.0686 30.7078 12.0686 30.9983C12.0686 31.2888 12.1576 31.5082 12.3563 31.7067C12.6378 31.9883 12.6837 31.9944 14.5295 31.9944C16.3753 31.9944 16.4213 31.9883 16.7028 31.7067C16.9014 31.5082 16.9905 31.2888 16.9905 30.9983C16.9905 30.7078 16.9014 30.4885 16.7028 30.2899C16.4213 30.0083 16.3753 30.0022 14.5295 30.0022C12.6837 30.0022 12.6378 30.0083 12.3563 30.2899ZM29.3155 31.3281C28.9524 31.7147 28.974 32.3408 29.3632 32.7065L29.6657 32.9905H34.0609H38.4562L38.7389 32.6617C39.1084 32.2321 39.1065 31.717 38.734 31.3446L38.4464 31.0569H34.0084H29.5704L29.3155 31.3281ZM20.6969 39.9544L19.7444 40.8832L19.3681 40.5461C18.7403 39.9837 18.3953 39.9496 13.7265 39.9871L9.41428 40.0218L8.94331 40.3336C8.02866 40.9392 8.02561 40.958 8.02561 45.9983C8.02561 51.0387 8.02866 51.0574 8.94331 51.6631L9.41428 51.9749L13.7265 52.0096C16.4796 52.0317 18.2038 51.9997 18.4954 51.9213C19.1149 51.7545 19.5552 51.3845 19.8151 50.8123C20.0105 50.3821 20.0324 49.989 20.0348 46.8828L20.0373 43.4313L21.5022 41.9508C22.8478 40.5908 22.967 40.435 22.967 40.0357C22.967 39.4743 22.5467 39.0257 22.0205 39.0257C21.7151 39.0257 21.4806 39.1901 20.6969 39.9544ZM18.0196 42.3069C18.0468 42.5481 17.7001 42.9516 16.0579 44.5896L14.0631 46.5794L13.3881 45.9213C12.3258 44.8858 11.9283 44.7729 11.3564 45.3448C10.7529 45.9483 10.848 46.1727 12.3379 47.6626C14.1456 49.4704 13.9425 49.4942 16.2495 47.2044L18.0451 45.4222V47.7318V50.0413H14.0608H10.0764V45.9968V41.9522L14.0315 41.9831L17.9865 42.014L18.0196 42.3069ZM40.5451 47.0247C40.5451 47.0413 39.3059 48.2933 37.7912 49.8069L35.0373 52.559V49.7767V46.9944H37.7912C39.3059 46.9944 40.5451 47.008 40.5451 47.0247Z" fill="url(#paint0_linear_1060_64)"/>
<defs>
<linearGradient id="paint0_linear_1060_64" x1="0" y1="0" x2="60.0874" y2="43.4058" gradientUnits="userSpaceOnUse">
<stop stop-color="#594372"/>
<stop offset="1" stop-color="#7A5B9E"/>
</linearGradient>
</defs>
</svg>
