<svg width="60" height="60" viewBox="0 0 60 60" fill="none" xmlns="http://www.w3.org/2000/svg">
<g clip-path="url(#clip0_1062_97)">
<path fill-rule="evenodd" clip-rule="evenodd" d="M2.79187 0.13684C1.75934 0.461098 0.726211 1.38582 0.253242 2.40911L0 2.95707V29.9688V56.9805L0.255352 57.5333C0.613477 58.3084 1.4932 59.2047 2.27051 59.5865L2.92969 59.9102H29.9414H56.9531L57.6123 59.5865C58.3896 59.2047 59.2693 58.3084 59.6275 57.5333L59.8828 56.9805V29.9688V2.95707L59.5658 2.31172C59.1577 1.48051 58.4332 0.754183 57.6081 0.349066L56.9531 0.0273866L30.1172 0.00523816C8.25973 -0.0126915 3.19043 0.0116835 2.79187 0.13684ZM56.6232 2.08567C56.8046 2.15422 57.1046 2.35192 57.2898 2.52512C57.9172 3.11176 57.9492 3.31696 57.9492 6.76192V9.92973H29.9414H1.93359V6.77328C1.93359 4.82809 1.98141 3.49028 2.05828 3.28696C2.22293 2.85114 2.7273 2.32204 3.16406 2.12704C3.45434 1.99754 8.11781 1.9693 29.9045 1.96555C48.275 1.96239 56.3936 1.99883 56.6232 2.08567ZM5.26816 5.29555C4.50516 6.05844 5.37902 7.32723 6.3477 6.86305C6.5291 6.7761 6.74871 6.55649 6.83566 6.37508C7.29984 5.40641 6.03105 4.53254 5.26816 5.29555ZM9.25254 5.29555C8.8241 5.72387 8.85914 6.3043 9.33773 6.70707C9.7902 7.08782 10.2896 7.04223 10.6934 6.58344C11.0002 6.23493 11.0243 5.94664 10.7856 5.48504C10.4912 4.91586 9.72668 4.82129 9.25254 5.29555ZM13.2369 5.29555C12.8664 5.66598 12.8625 6.18301 13.227 6.60676C13.6163 7.05934 14.2744 7.05934 14.6637 6.60676C15.237 5.9402 14.8181 5.00786 13.9453 5.00786C13.6548 5.00786 13.4354 5.09692 13.2369 5.29555ZM49.2803 5.2393C48.9483 5.57129 48.8575 6.04731 49.0577 6.40426C49.3577 6.93875 49.643 6.99641 51.9929 6.99829C54.1773 7.00004 54.1819 6.99946 54.5418 6.69664C55.0077 6.30453 55.0382 5.71907 54.6147 5.29555C54.328 5.00879 54.3195 5.00786 51.9193 5.00786C49.6784 5.00786 49.4957 5.02391 49.2803 5.2393ZM57.9492 34.1213C57.9492 49.5212 57.911 56.4218 57.8245 56.6506C57.655 57.0996 57.1493 57.6201 56.6932 57.8152C56.1294 58.0565 3.7534 58.0565 3.18961 57.8152C2.73352 57.6201 2.22785 57.0996 2.05828 56.6506C1.9718 56.4218 1.93359 49.5212 1.93359 34.1213V11.9219H29.9414H57.9492V34.1213ZM9.54891 15.1836C9.12047 15.4091 6.53824 18.4776 6.2141 19.1466C5.55223 20.5126 6.65801 21.9904 8.34738 21.9975L8.96027 22L8.99191 30.3588L9.02344 38.7177L9.36117 39.1603C9.98543 39.9786 9.05684 39.9297 23.9745 39.9297H37.4681L37.9293 39.6705C38.7731 39.1963 38.9006 38.8363 38.946 36.7982L38.9857 35.0143L44.6691 34.9818L50.3524 34.9493L50.6352 34.6204C51.0047 34.1908 51.0028 33.6758 50.6303 33.3034L50.3427 33.0157H42.9045H35.4662L35.2234 33.3245C34.8862 33.753 34.9079 34.3129 35.2751 34.6578C35.4979 34.8671 35.7405 34.9469 36.2712 34.9852L36.9727 35.036V36.4868V37.9375H34.4531H31.9336V29.784V21.6304L31.5911 21.2879C31.1466 20.8434 30.7284 20.8434 30.2839 21.2879L29.9414 21.6304V29.784V37.9375H20.4492H10.957V29.972V22.0063L19.0137 21.9739C26.61 21.9433 27.0907 21.929 27.4279 21.7249C27.6245 21.6057 28.4682 20.6458 29.3029 19.5917C30.1375 18.5376 30.873 17.675 30.9375 17.6749C31.002 17.6748 31.5557 18.3131 32.168 19.0933C34.3743 21.9048 34.5014 21.9982 36.123 21.9993L36.9727 22V23.4508V24.9016L36.2712 24.9523C35.7405 24.9907 35.4979 25.0705 35.2751 25.2798C34.9079 25.6247 34.8862 26.1846 35.2234 26.6131L35.4662 26.9219H42.9045H50.3427L50.6303 26.6342C51.0028 26.2618 51.0047 25.7468 50.6352 25.3172L50.3524 24.9883L44.6586 24.9557L38.9648 24.9233V23.4777V22.0322L39.7212 21.9714C40.9056 21.8763 41.6419 21.2939 41.8274 20.3054C41.9681 19.5548 41.7248 19.0884 40.1961 17.1785C39.0141 15.7017 38.6372 15.3085 38.2584 15.157C37.836 14.9879 36.3752 14.9688 23.8727 14.9688C10.6062 14.9688 9.9382 14.9788 9.54891 15.1836ZM28.7695 17.0253C28.7695 17.0608 28.2401 17.7464 27.593 18.5488L26.4164 20.0079H17.2152C8.33484 20.0079 8.01937 20.0004 8.16715 19.7942C8.25141 19.6768 8.7907 18.9913 9.36562 18.2708L10.4108 16.961H19.5902C24.6388 16.961 28.7695 16.9899 28.7695 17.0253ZM38.6426 18.4184C39.2711 19.2138 39.7852 19.8968 39.7852 19.9361C39.7852 19.9756 38.8117 20.0079 37.6219 20.0079H35.4586L34.282 18.5488C33.6349 17.7464 33.1055 17.0608 33.1055 17.0253C33.1055 16.9899 34.0943 16.9636 35.3027 16.9667L37.5 16.9723L38.6426 18.4184ZM41.6918 28.9965C41.3387 29.0647 40.957 29.5746 40.957 29.9781C40.957 30.1591 41.0843 30.4552 41.2398 30.6361L41.5225 30.9649L47.1285 31.0012C50.9991 31.0262 52.872 30.9971 53.1786 30.9071C54.1044 30.6356 54.1859 29.444 53.3039 29.0755C52.9927 28.9454 51.8536 28.9172 47.4354 28.93C44.4202 28.9388 41.8355 28.9687 41.6918 28.9965ZM36.5447 43.143C35.1533 43.4805 33.6686 44.5463 32.8818 45.7725C30.73 49.1257 32.4724 53.5954 36.3787 54.7428C36.9272 54.9038 37.9003 54.9297 43.4146 54.9297C50.383 54.9297 50.5433 54.9168 51.7881 54.2536C52.552 53.8466 53.8192 52.5794 54.2262 51.8155C55.4399 49.5375 55.0172 46.633 53.2031 44.7853C52.4089 43.9764 51.1463 43.2856 50.111 43.0937C49.1474 42.915 37.3071 42.9581 36.5447 43.143ZM7.70742 43.9952C7.35387 44.0653 6.97266 44.5752 6.97266 44.9781C6.97266 45.1591 7.09992 45.4552 7.25543 45.6361L7.53832 45.9649H17.9101H28.2819L28.5843 45.6808C29.001 45.2893 29.001 44.6483 28.5844 44.2568L28.282 43.9727L18.1254 43.958C12.5392 43.9501 7.85109 43.9668 7.70742 43.9952ZM50.4984 45.2933C51.3779 45.6989 52.0055 46.2794 52.4491 47.0976C52.8273 47.795 52.8516 47.9072 52.8516 48.9532C52.8516 49.8984 52.8081 50.1549 52.5636 50.6524C52.1957 51.4012 51.3738 52.2231 50.625 52.591L50.0391 52.8789H43.418H36.7969L36.2055 52.5669C34.9577 51.9082 34.1094 50.6864 33.97 49.3469C33.7772 47.4951 35.0595 45.6159 36.8497 45.1264C37.2491 45.0172 38.9548 44.9865 43.6523 45.0041C49.8983 45.0273 49.9241 45.0284 50.4984 45.2933ZM7.26035 48.3034C6.86555 48.6981 6.87188 49.2864 7.275 49.6652L7.57746 49.9493L17.6168 49.9832C23.1386 50.002 27.8306 49.9858 28.0437 49.9474C28.5959 49.8479 28.8867 49.5119 28.8867 48.9736C28.8867 48.6565 28.8074 48.4507 28.6155 48.2704L28.3443 48.0157H17.9461H7.54793L7.26035 48.3034ZM7.26035 52.2877C6.94418 52.6038 6.87691 53.2133 7.12289 53.5337C7.47504 53.9923 7.47328 53.9922 17.9278 53.9922C28.6995 53.9922 28.6078 53.9967 28.8139 53.4596C28.9883 53.0053 28.8877 52.4866 28.5779 52.243C28.2709 52.0013 28.2127 52 17.9086 52H7.54793L7.26035 52.2877Z" fill="url(#paint0_linear_1062_97)"/>
</g>
<defs>
<linearGradient id="paint0_linear_1062_97" x1="0" y1="0" x2="62.8596" y2="56.6854" gradientUnits="userSpaceOnUse">
<stop stop-color="#594372"/>
<stop offset="1" stop-color="#7A5B9E"/>
</linearGradient>
<clipPath id="clip0_1062_97">
<rect width="60" height="60" fill="white"/>
</clipPath>
</defs>
</svg>
