<svg width="60" height="60" viewBox="0 0 60 60" fill="none" xmlns="http://www.w3.org/2000/svg">
<g clip-path="url(#clip0_1062_102)">
<path fill-rule="evenodd" clip-rule="evenodd" d="M45.522 0.0787396C44.4889 0.238349 42.956 0.740146 41.9375 1.25226C40.2318 2.10983 38.3824 3.7364 37.5123 5.14417C37.3631 5.38558 37.2059 5.5821 37.1627 5.58093C37.1197 5.57964 36.5044 5.39319 35.7954 5.16632C32.8808 4.23397 30.2757 3.88944 26.7865 3.97487C22.4475 4.08116 19.2711 4.85647 15.4048 6.75292C10.9513 8.93729 7.28274 12.1462 4.56223 16.2371C2.15918 19.8505 0.606212 24.1699 0.113556 28.6104C-0.0398429 29.9924 -0.037382 32.9537 0.118243 34.3864C1.42512 46.4214 10.4511 56.2562 22.2853 58.5399C25.2397 59.1101 29.197 59.1676 32.0454 58.6819C37.9734 57.671 43.1551 54.9407 47.3439 50.6209C50.7196 47.1395 53.0828 42.9218 54.2528 38.29C54.8208 36.0417 54.975 34.8628 55.0405 32.2677C55.1084 29.5815 54.9878 28.0604 54.5336 25.8697L54.2532 24.5181L55.002 23.283C57.2609 19.5566 58.5268 16.3721 58.9322 13.3969C59.253 11.0423 58.8439 8.54601 57.7959 6.46194C56.3024 3.49218 53.3721 1.15827 50.0542 0.29624C49.0126 0.0255365 46.6121 -0.0896588 45.522 0.0787396ZM49.1352 2.11862C52.3627 2.73608 55.1625 5.06765 56.3918 8.16116C58.4762 13.4071 55.5509 20.6907 47.5951 30.0637L47.2568 30.4623L46.3308 29.3763C45.8215 28.7789 44.9371 27.6766 44.3654 26.9269C39.4484 20.4774 36.9967 14.6877 37.4926 10.6969C38.2123 4.90581 43.4671 1.03405 49.1352 2.11862ZM45.3462 4.11983C44.9917 4.21628 44.2534 4.51323 43.7055 4.77972C42.8973 5.173 42.5214 5.45472 41.7124 6.27327C40.2497 7.75358 39.5681 9.23003 39.4124 11.2562C39.2212 13.7427 40.466 16.4925 42.4502 17.9671C45.0533 19.9015 48.31 20.1477 51.0884 18.62C52.2728 17.9689 53.6367 16.5334 54.2339 15.3096C54.9483 13.8457 55.1112 13.0671 55.0426 11.4455C55.0038 10.5261 54.9069 9.85147 54.7393 9.33304C54.0037 7.05796 51.9607 5.01468 49.6821 4.27487C48.6728 3.9471 46.2936 3.86214 45.3462 4.11983ZM30.6977 6.06292C32.6811 6.29624 36.2055 7.19003 36.2055 7.45968C36.2055 7.52132 36.0642 8.0339 35.8916 8.59886C35.6121 9.51315 35.5744 9.84269 35.5485 11.5979L35.5193 13.57L34.9486 14.176C32.6457 16.6223 31.518 19.4966 31.518 22.9199C31.518 25.8835 32.4271 28.2699 34.2682 30.1403C35.1185 31.0039 35.932 31.5615 37.5933 32.419C39.3696 33.3358 39.3652 33.3262 39.3677 36.2908C39.3702 39.2611 39.5859 40.1357 40.6354 41.4293C41.9999 43.1115 44.6836 43.6887 46.7184 42.7377C47.4132 42.413 47.8226 42.0586 49.9458 39.9449C51.2832 38.6134 52.3774 37.5871 52.3774 37.6642C52.3774 37.7414 52.1347 38.5447 51.8381 39.4494C50.8311 42.5202 49.0714 45.6111 46.8836 48.1517C45.8347 49.3698 43.5502 51.5197 43.3042 51.5203C43.2445 51.5204 42.0421 50.336 40.6321 48.8882C38.4026 46.5989 37.9664 46.2056 37.2859 45.8706C36.5441 45.5054 36.4361 45.4854 35.2057 45.4854H33.9079L32.5079 46.1766C30.163 47.3344 28.1098 47.9128 25.7759 48.0732C23.2117 48.2496 20.7339 47.4463 17.6398 45.4355C16.197 44.4977 15.5324 44.2549 14.4087 44.2549C13.3992 44.2549 12.6052 44.4983 11.7486 45.0703C11.1104 45.4965 10.5018 46.2235 8.87051 48.5085C8.73387 48.6998 8.64703 48.6309 7.92059 47.7551C5.45414 44.7818 3.54586 40.9788 2.70949 37.3701L2.48543 36.4033H3.50648H4.52766L4.67625 37.0772C5.06895 38.8585 6.47098 42.3166 7.05047 42.9335C7.6077 43.5266 8.66695 43.0711 8.66602 42.2387C8.66578 42.0264 8.5657 41.6887 8.44359 41.4883C7.93383 40.6525 6.89859 37.9708 6.61172 36.7434L6.54059 36.439L8.39461 36.3694C10.5015 36.2903 11.2501 36.1289 12.4643 35.492C13.4566 34.9713 14.6822 33.8042 15.1988 32.8877C15.3986 32.5332 15.9633 31.2191 16.4538 29.9673C17.5402 27.1949 17.7939 26.717 18.5685 25.9843C19.317 25.2764 19.7228 25.0696 22.731 23.8619C25.8279 22.6186 26.1599 22.4448 26.9484 21.6534C28.6004 19.9955 29.0167 17.5553 28.0024 15.4746C27.3389 14.1136 26.2617 13.1783 24.6609 12.5739C23.0394 11.9614 22.5741 11.4198 22.0787 9.56917C21.9213 8.98089 21.6115 8.10772 21.3902 7.6289C21.169 7.15007 21.0271 6.73417 21.0748 6.70475C21.3764 6.51831 24.6413 5.99226 26.1274 5.89065C27.026 5.82925 29.5068 5.92276 30.6977 6.06292ZM48.8003 6.07265C50.3044 6.45854 51.8577 7.76812 52.5519 9.23554C53.2209 10.6495 53.3107 12.3035 52.7974 13.7582C51.9955 16.031 49.6689 17.6533 47.211 17.6533C44.5419 17.6533 42.0382 15.6117 41.4913 12.9894C40.6975 9.18292 43.7975 5.60308 47.6313 5.89897C48.018 5.92874 48.5441 6.00702 48.8003 6.07265ZM19.5234 8.24905C19.7511 8.74862 20.0698 9.65823 20.2315 10.2705C20.8576 12.6415 21.8306 13.6698 24.272 14.5406C24.9957 14.7987 25.8296 15.5487 26.2186 16.2913C26.4836 16.7971 26.533 17.0393 26.533 17.8291C26.533 18.619 26.4836 18.8612 26.2186 19.367C25.6463 20.4599 25.1829 20.7494 21.8433 22.1012C18.6064 23.4115 17.8068 23.8573 16.8855 24.8652C16.073 25.7544 15.7352 26.3976 14.7082 29.0129C13.6088 31.8125 13.3535 32.2888 12.5677 33.007C11.3572 34.1133 10.183 34.4442 7.67074 34.3871L6.14766 34.3526L6.05215 33.6494C5.91281 32.6223 6.03844 28.8849 6.25055 27.7486C7.03805 23.5296 8.81391 19.9476 11.6802 16.7971C12.4099 15.9949 12.5016 15.5012 12.0116 15.0114C11.3889 14.3885 10.8345 14.6782 9.43266 16.359C7.28121 18.9384 5.66449 22.0589 4.80797 25.2852C4.16227 27.7172 4.04473 28.7011 4.04356 31.6866L4.04238 34.4112H3.14438C2.4784 34.4112 2.22984 34.3683 2.18262 34.2455C2.1477 34.1543 2.08371 33.3238 2.04047 32.3998C1.72465 25.6453 4.31485 18.7942 9.0702 13.806C11.5624 11.1919 14.3501 9.28675 17.8657 7.79519C18.4458 7.54909 18.9629 7.34612 19.015 7.34425C19.067 7.34237 19.2957 7.74948 19.5234 8.24905ZM46.2754 7.96979C44.607 8.41968 43.354 9.9621 43.354 11.5662C43.354 12.2729 43.7146 12.7315 44.2704 12.7315C44.8323 12.7315 45.2107 12.3394 45.3002 11.6645C45.4388 10.6207 46.0604 9.97722 47.0872 9.81491C47.8651 9.69186 48.2055 9.38097 48.2055 8.79315C48.2055 8.47136 48.1254 8.29628 47.8826 8.08733C47.5206 7.77597 47.1066 7.74573 46.2754 7.96979ZM14.1104 12.0817C13.5389 12.6531 13.9166 13.669 14.7006 13.669C15.2539 13.669 15.4473 13.5711 15.6435 13.1918C15.8813 12.7321 15.8605 12.5693 15.5115 12.1546C15.1194 11.6886 14.5339 11.6582 14.1104 12.0817ZM36.2055 16.2043C36.2055 16.8356 38.1843 21.1097 39.4198 23.1473C41.3588 26.345 45.1369 31.3343 46.1838 32.0797C46.7115 32.4555 47.4458 32.5014 48.0734 32.1976C48.6041 31.9406 49.9458 30.4198 51.8621 27.9032C52.6673 26.8455 52.7127 26.8063 52.7745 27.1144C53.0052 28.2675 53.1127 29.7212 53.1132 31.6984L53.1139 33.9662L49.7285 37.353C47.8665 39.2158 46.1583 40.8299 45.9325 40.9398C45.7068 41.0497 45.1486 41.1603 44.6923 41.1857C43.6608 41.2428 42.8543 40.9342 42.2303 40.2436C41.4717 39.4039 41.4307 39.2136 41.3637 36.2276C41.3054 33.6333 41.2918 33.5081 40.9992 32.8877C40.5554 31.9471 39.907 31.3708 38.5243 30.6885C36.3565 29.6187 35.1545 28.521 34.3241 26.8526C33.7345 25.6679 33.5148 24.6192 33.5122 22.9776C33.5084 20.4813 34.1034 18.5457 35.4652 16.6257C35.9543 15.936 36.2055 15.793 36.2055 16.2043ZM15.3832 46.3802C15.5239 46.4533 16.1893 46.8567 16.8618 47.2765C18.9918 48.6062 21.2073 49.5517 22.9908 49.8917C23.9305 50.071 26.1504 50.0694 27.3579 49.8887C29.4096 49.5816 31.3549 48.9579 33.3279 47.9747C34.292 47.4943 34.6057 47.393 35.1443 47.3879C36.2691 47.3775 36.6098 47.6178 39.2524 50.2855L41.6548 52.7106L41.3168 52.9821C40.76 53.4294 37.8484 54.886 36.4957 55.3942C33.6673 56.4566 30.8109 56.9584 27.5923 56.9584C23.0481 56.9584 18.9384 55.8948 15.0657 53.7165C13.185 52.6587 10.1284 50.327 10.2402 50.0354C10.2691 49.9598 10.7743 49.2356 11.363 48.4262C12.3964 47.0046 12.7852 46.6071 13.371 46.3725C13.7609 46.2164 15.0778 46.2214 15.3832 46.3802Z" fill="url(#paint0_linear_1062_102)"/>
</g>
<defs>
<linearGradient id="paint0_linear_1062_102" x1="0" y1="0" x2="61.9215" y2="55.892" gradientUnits="userSpaceOnUse">
<stop stop-color="#594372"/>
<stop offset="1" stop-color="#7A5B9E"/>
</linearGradient>
<clipPath id="clip0_1062_102">
<rect width="60" height="60" fill="white"/>
</clipPath>
</defs>
</svg>
